<svg>
  <symbol id="logo-pink-white-mobile" xmlns="http://www.w3.org/2000/svg" width="75" height="23"
    viewBox="0 0 74.426 22.859">
    <g>
      <path fill="currentColor"
        d="M0,1.449c0-0.708,0.58-1.288,1.256-1.288h7.18c5.087,0,8.436,2.704,8.436,7.147v0.064 c0,4.861-4.057,7.373-8.854,7.373H2.544v6.825c0,0.708-0.58,1.288-1.288,1.288C0.58,22.859,0,22.279,0,21.571V1.449z M8.114,12.428 c3.734,0,6.182-1.996,6.182-4.958V7.405c0-3.22-2.415-4.894-6.054-4.894H2.544v9.917H8.114z" />
      <path fill="currentColor"
        d="M21.729,1.288C21.729,0.58,22.308,0,22.983,0c0.709,0,1.288,0.58,1.288,1.288v20.283 c0,0.708-0.579,1.288-1.288,1.288c-0.676,0-1.255-0.58-1.255-1.288V1.288z" />
      <path fill="currentColor"
        d="M30.87,1.32c0-0.676,0.579-1.256,1.256-1.256h0.354c0.58,0,0.934,0.29,1.288,0.74l13.684,17.45V1.256 C47.451,0.58,47.998,0,48.707,0c0.676,0,1.223,0.58,1.223,1.256v20.348c0,0.676-0.482,1.191-1.158,1.191h-0.129 c-0.548,0-0.934-0.322-1.32-0.772L33.349,4.153v17.45c0,0.676-0.547,1.256-1.255,1.256c-0.677,0-1.224-0.58-1.224-1.256V1.32z" />
      <path fill="currentColor"
        d="M56.3,1.288C56.3,0.58,56.879,0,57.556,0c0.708,0,1.287,0.58,1.287,1.288v12.331L71.689,0.451 C71.979,0.193,72.269,0,72.688,0c0.676,0,1.224,0.612,1.224,1.256c0,0.354-0.161,0.644-0.419,0.901l-7.984,7.92l8.564,10.561 c0.225,0.29,0.354,0.547,0.354,0.934c0,0.676-0.579,1.288-1.287,1.288c-0.483,0-0.806-0.258-1.03-0.58l-8.403-10.463l-4.862,4.861 v4.894c0,0.708-0.579,1.288-1.287,1.288c-0.677,0-1.256-0.58-1.256-1.288V1.288z" />
    </g>
  </symbol>
  <symbol id="logo-pink-white-tablet" xmlns="http://www.w3.org/2000/svg" width="147" height="41"
    viewBox="0 0 146.3 40.375">
    <g>
      <path fill="currentColor"
        d="M71.874,18.661c0-0.708,0.58-1.288,1.256-1.288h7.18c5.087,0,8.436,2.704,8.436,7.146v0.064 c0,4.861-4.057,7.373-8.854,7.373h-5.475v6.825c0,0.708-0.58,1.288-1.288,1.288c-0.676,0-1.256-0.58-1.256-1.288V18.661z M79.988,29.641c3.734,0,6.182-1.996,6.182-4.959v-0.063c0-3.22-2.414-4.894-6.053-4.894h-5.699v9.917H79.988L79.988,29.641z" />
      <path fill="currentColor"
        d="M93.603,18.5c0-0.708,0.579-1.288,1.255-1.288c0.709,0,1.288,0.58,1.288,1.288v20.283 c0,0.708-0.579,1.287-1.288,1.287c-0.676,0-1.255-0.579-1.255-1.287V18.5z" />
      <path fill="currentColor"
        d="M102.744,18.532c0-0.676,0.58-1.256,1.256-1.256h0.354c0.58,0,0.935,0.29,1.288,0.74l13.684,17.45V18.468 c0-0.676,0.547-1.256,1.256-1.256c0.676,0,1.224,0.58,1.224,1.256v20.349c0,0.676-0.481,1.19-1.158,1.19h-0.129c-0.548,0-0.935-0.321-1.319-0.772l-13.975-17.868v17.45c0,0.676-0.547,1.256-1.256,1.256c-0.676,0-1.223-0.58-1.223-1.256V18.532 H102.744z" />
      <path fill="currentColor"
        d="M128.173,18.5c0-0.708,0.58-1.288,1.257-1.288c0.708,0,1.286,0.58,1.286,1.288v12.331l12.848-13.168 c0.29-0.257,0.579-0.451,0.998-0.451c0.676,0,1.225,0.612,1.225,1.256c0,0.354-0.162,0.644-0.42,0.901l-7.984,7.92l8.564,10.561 c0.225,0.291,0.354,0.547,0.354,0.935c0,0.676-0.578,1.288-1.286,1.288c-0.483,0-0.806-0.258-1.03-0.58l-8.402-10.463l-4.863,4.861 v4.894c0,0.708-0.578,1.288-1.286,1.288c-0.677,0-1.257-0.58-1.257-1.288V18.5H128.173z" />
    </g>
    <path fill="currentColor" d="M60.498,28.266" />
    <path fill="currentColor"
      d="M60.462,28.016c-0.002-0.009-5.175-21.365-5.175-21.365C54.926,4.303,52.694,0,46.688,0 c-0.829,0-1.5,0.671-1.5,1.5s0.671,1.5,1.5,1.5c4.856,0,5.575,3.729,5.639,4.143l4.767,19.701h-2.073 c-0.742-5.927-5.802-10.531-11.927-10.531s-11.186,4.604-11.927,10.531h-1.82c-0.741-5.927-5.802-10.531-11.927-10.531 S6.235,20.917,5.493,26.844H3.42L8.187,7.143C8.25,6.729,8.97,3,13.826,3c0.829,0,1.5-0.671,1.5-1.5S14.655,0,13.826,0 C7.82,0,5.588,4.303,5.227,6.651c0,0-5.173,21.356-5.175,21.365c-0.266,1.109,0.531,1.826,1.426,1.826 c0.012,0,0.023,0.004,0.036,0.004h3.982c0.741,5.926,5.802,10.53,11.927,10.53s11.185-4.604,11.927-10.53h1.814 c0.742,5.926,5.802,10.53,11.927,10.53s11.186-4.604,11.927-10.53H59c0.012,0,0.023-0.004,0.036-0.004 C59.931,29.842,60.728,29.125,60.462,28.016z M26.315,29.844c-0.715,4.272-4.421,7.531-8.896,7.531c-4.475,0-8.18-3.259-8.896-7.531 c-0.082-0.488-0.135-0.988-0.135-1.5s0.053-1.011,0.135-1.5c0.715-4.271,4.421-7.531,8.896-7.531c4.475,0,8.18,3.26,8.896,7.531 c0.082,0.489,0.135,0.988,0.135,1.5S26.397,29.355,26.315,29.844z M51.99,29.844c-0.716,4.272-4.421,7.531-8.896,7.531 c-4.475,0-8.181-3.259-8.896-7.531c-0.082-0.488-0.135-0.988-0.135-1.5s0.053-1.011,0.135-1.5c0.716-4.271,4.421-7.531,8.896-7.531 c4.475,0,8.181,3.26,8.896,7.531c0.082,0.489,0.135,0.988,0.135,1.5S52.072,29.355,51.99,29.844z" />
  </symbol>
  <symbol id="logo-pink-white-desktop" xmlns="http://www.w3.org/2000/svg" width="147" height="41"
    viewBox="0 0 146.3 40.375">
    <g>
      <path fill="currentColor"
        d="M71.874,18.661c0-0.708,0.58-1.288,1.256-1.288h7.18c5.087,0,8.436,2.704,8.436,7.146v0.064 c0,4.861-4.057,7.373-8.854,7.373h-5.475v6.825c0,0.708-0.58,1.288-1.288,1.288c-0.676,0-1.256-0.58-1.256-1.288V18.661z M79.988,29.641c3.734,0,6.182-1.996,6.182-4.959v-0.063c0-3.22-2.414-4.894-6.053-4.894h-5.699v9.917H79.988L79.988,29.641z" />
      <path fill="currentColor"
        d="M93.603,18.5c0-0.708,0.579-1.288,1.255-1.288c0.709,0,1.288,0.58,1.288,1.288v20.283 c0,0.708-0.579,1.287-1.288,1.287c-0.676,0-1.255-0.579-1.255-1.287V18.5z" />
      <path fill="currentColor"
        d="M102.744,18.532c0-0.676,0.58-1.256,1.256-1.256h0.354c0.58,0,0.935,0.29,1.288,0.74l13.684,17.45V18.468 c0-0.676,0.547-1.256,1.256-1.256c0.676,0,1.224,0.58,1.224,1.256v20.349c0,0.676-0.481,1.19-1.158,1.19h-0.129c-0.548,0-0.935-0.321-1.319-0.772l-13.975-17.868v17.45c0,0.676-0.547,1.256-1.256,1.256c-0.676,0-1.223-0.58-1.223-1.256V18.532 H102.744z" />
      <path fill="currentColor"
        d="M128.173,18.5c0-0.708,0.58-1.288,1.257-1.288c0.708,0,1.286,0.58,1.286,1.288v12.331l12.848-13.168 c0.29-0.257,0.579-0.451,0.998-0.451c0.676,0,1.225,0.612,1.225,1.256c0,0.354-0.162,0.644-0.42,0.901l-7.984,7.92l8.564,10.561 c0.225,0.291,0.354,0.547,0.354,0.935c0,0.676-0.578,1.288-1.286,1.288c-0.483,0-0.806-0.258-1.03-0.58l-8.402-10.463l-4.863,4.861 v4.894c0,0.708-0.578,1.288-1.286,1.288c-0.677,0-1.257-0.58-1.257-1.288V18.5H128.173z" />
    </g>
    <path fill="#D22856"
      d="M98.498,9.875c-2.002,0-3.623-1.623-3.623-3.624c0,2.001-1.623,3.624-3.625,3.624 c2.002,0,3.625,1.623,3.625,3.624C94.875,11.498,96.496,9.875,98.498,9.875z" />
    <g>
      <path fill="currentColor"
        d="M43.094,19.313c0.246,0,0.489,0.014,0.73,0.033c-0.437-0.728-1.227-1.221-2.136-1.221 c-0.877,0-1.614-0.568-1.884-1.354c-0.727,0.208-1.425,0.482-2.089,0.816c0.062,0.017,0.122,0.038,0.188,0.038c1.104,0,2,0.896,2,2 c0,0.096-0.015,0.188-0.028,0.281C40.875,19.524,41.959,19.313,43.094,19.313z" />
      <path fill="currentColor"
        d="M60.462,28.016c-0.002-0.009-5.175-21.365-5.175-21.365C54.926,4.303,52.694,0,46.688,0 c-0.829,0-1.5,0.671-1.5,1.5s0.671,1.5,1.5,1.5c4.856,0,5.575,3.729,5.639,4.143l4.767,19.701h-2.073 c-0.445-3.557-2.453-6.628-5.305-8.522c-0.897,0.379-1.529,1.269-1.529,2.303c0,0.088-0.015,0.171-0.026,0.256 c1.991,1.358,3.415,3.489,3.829,5.964c0.082,0.489,0.135,0.988,0.135,1.5s-0.053,1.012-0.135,1.5 c-0.716,4.272-4.421,7.531-8.896,7.531c-4.475,0-8.181-3.259-8.896-7.531c-0.082-0.488-0.135-0.988-0.135-1.5 s0.053-1.011,0.135-1.5c0.147-0.878,0.427-1.711,0.808-2.483c-1.034-0.078-1.852-0.932-1.852-1.985 c0-0.189-0.077-0.357-0.192-0.489c-0.938,1.469-1.569,3.15-1.795,4.958h-1.82c-0.741-5.927-5.802-10.531-11.927-10.531 S6.235,20.917,5.493,26.844H3.42L8.187,7.143C8.25,6.729,8.97,3,13.826,3c0.829,0,1.5-0.671,1.5-1.5S14.655,0,13.826,0 C7.82,0,5.588,4.303,5.227,6.651c0,0-5.173,21.356-5.175,21.365c-0.266,1.109,0.531,1.826,1.426,1.826 c0.012,0,0.023,0.004,0.036,0.004h3.982c0.079,0.628,0.215,1.237,0.387,1.831c0.059-0.106,0.102-0.224,0.102-0.354 c0-1.104,0.896-2,2-2c0.166,0,0.324,0.025,0.478,0.063c-0.043-0.343-0.074-0.688-0.074-1.042c0-0.512,0.053-1.011,0.135-1.5 c0.715-4.271,4.421-7.531,8.896-7.531s8.18,3.26,8.896,7.531c0.082,0.489,0.135,0.988,0.135,1.5s-0.053,1.012-0.135,1.5 c-0.715,4.272-4.421,7.531-8.896,7.531c-2.022,0-3.883-0.67-5.386-1.794c-0.35,0.302-0.8,0.491-1.299,0.491 c-0.413,0-0.749,0.336-0.749,0.748c0,0.29-0.065,0.564-0.176,0.812c2.075,1.708,4.722,2.743,7.614,2.743 c6.125,0,11.185-4.604,11.927-10.53h1.814c0.742,5.926,5.802,10.53,11.927,10.53s11.186-4.604,11.927-10.53H59 c0.012,0,0.023-0.004,0.036-0.004C59.931,29.842,60.728,29.125,60.462,28.016z" />
    </g>
    <g>
      <g>
        <path fill="#D22856"
          d="M50.686,16.125c-2.485,0-4.499-2.014-4.499-4.499c0,2.485-2.014,4.499-4.499,4.499 c2.485,0,4.499,2.014,4.499,4.499C46.187,18.139,48.2,16.125,50.686,16.125z" />
      </g>
    </g>
    <g>
      <g>
        <path fill="#D22856"
          d="M37.904,19.626c-1.519,0-2.749-1.23-2.749-2.749c0,1.519-1.23,2.749-2.749,2.749 c1.519,0,2.749,1.229,2.749,2.749C35.155,20.855,36.386,19.626,37.904,19.626z" />
      </g>
    </g>
    <g>
      <g>
        <path fill="#D22856"
          d="M10.734,34.072c-1.519,0-2.749-1.23-2.749-2.75c0,1.52-1.23,2.75-2.749,2.75 c1.519,0,2.749,1.229,2.749,2.748C7.985,35.303,9.215,34.072,10.734,34.072z" />
      </g>
    </g>
  </symbol>
  <symbol id="logo-pink-blue-desktop" xmlns="http://www.w3.org/2000/svg" width="147" height="41"
    viewBox="0 0 146.3 40.375">
    <g>
      <path fill="currentColor"
        d="M71.874,18.661c0-0.708,0.58-1.288,1.256-1.288h7.18c5.087,0,8.436,2.704,8.436,7.146v0.063 c0,4.86-4.057,7.373-8.854,7.373h-5.475v6.825c0,0.708-0.58,1.287-1.289,1.287c-0.676,0-1.256-0.58-1.256-1.287L71.874,18.661 L71.874,18.661z M79.988,29.641c3.734,0,6.182-1.996,6.182-4.959v-0.062c0-3.221-2.414-4.894-6.053-4.894h-5.699v9.917h5.57V29.641 z" />
      <path fill="currentColor"
        d="M93.603,18.5c0-0.708,0.579-1.288,1.255-1.288c0.709,0,1.288,0.58,1.288,1.288v20.283 c0,0.708-0.579,1.287-1.288,1.287c-0.676,0-1.255-0.579-1.255-1.287V18.5z" />
      <path fill="currentColor"
        d="M102.744,18.532c0-0.676,0.58-1.256,1.256-1.256h0.354c0.58,0,0.935,0.29,1.288,0.74l13.684,17.45V18.468 c0-0.676,0.547-1.256,1.256-1.256c0.676,0,1.225,0.58,1.225,1.256v20.349c0,0.677-0.48,1.19-1.158,1.19h-0.129 c-0.548,0-0.936-0.321-1.318-0.772l-13.976-17.867v17.449c0,0.677-0.547,1.257-1.257,1.257c-0.676,0-1.223-0.58-1.223-1.257V18.532 H102.744z" />
      <path fill="currentColor"
        d="M128.173,18.5c0-0.708,0.58-1.288,1.257-1.288c0.708,0,1.286,0.58,1.286,1.288v12.331l12.848-13.168 c0.29-0.257,0.579-0.451,0.998-0.451c0.676,0,1.225,0.612,1.225,1.256c0,0.354-0.162,0.644-0.42,0.901l-7.984,7.92l8.564,10.561 c0.225,0.291,0.354,0.547,0.354,0.936c0,0.676-0.577,1.288-1.285,1.288c-0.482,0-0.807-0.259-1.03-0.58l-8.401-10.464l-4.863,4.861 v4.895c0,0.708-0.578,1.288-1.286,1.288c-0.677,0-1.257-0.58-1.257-1.288V18.5H128.173z" />
    </g>
    <path fill="#D22856"
      d="M98.498,9.875c-2.002,0-3.623-1.623-3.623-3.624c0,2.001-1.623,3.624-3.625,3.624 c2.002,0,3.625,1.623,3.625,3.624C94.875,11.498,96.496,9.875,98.498,9.875z" />
    <g>
      <path fill="#D22856"
        d="M43.094,19.313c0.246,0,0.489,0.014,0.73,0.033c-0.437-0.728-1.227-1.221-2.136-1.221 c-0.877,0-1.614-0.568-1.884-1.354c-0.727,0.208-1.425,0.482-2.089,0.816c0.062,0.017,0.122,0.038,0.188,0.038c1.104,0,2,0.896,2,2 c0,0.096-0.015,0.188-0.028,0.281C40.875,19.524,41.959,19.313,43.094,19.313z" />
      <path fill="#D22856"
        d="M60.462,28.016c-0.002-0.009-5.175-21.365-5.175-21.365C54.926,4.303,52.694,0,46.688,0 c-0.829,0-1.5,0.671-1.5,1.5s0.671,1.5,1.5,1.5c4.856,0,5.575,3.729,5.639,4.143l4.767,19.701h-2.073 c-0.445-3.557-2.453-6.628-5.305-8.522c-0.897,0.379-1.529,1.269-1.529,2.303c0,0.088-0.015,0.171-0.026,0.256 c1.991,1.358,3.415,3.489,3.829,5.965c0.082,0.488,0.135,0.987,0.135,1.5c0,0.512-0.053,1.012-0.135,1.5 c-0.716,4.271-4.421,7.53-8.896,7.53c-4.475,0-8.181-3.259-8.896-7.53c-0.082-0.488-0.135-0.988-0.135-1.5 c0-0.513,0.053-1.012,0.135-1.5c0.147-0.879,0.427-1.712,0.808-2.484c-1.034-0.077-1.852-0.932-1.852-1.984 c0-0.189-0.077-0.357-0.192-0.488c-0.938,1.469-1.569,3.149-1.795,4.957h-1.82c-0.741-5.927-5.802-10.531-11.927-10.531 S6.235,20.917,5.493,26.844H3.42L8.187,7.143C8.25,6.729,8.97,3,13.826,3c0.829,0,1.5-0.671,1.5-1.5S14.655,0,13.826,0 C7.82,0,5.588,4.303,5.227,6.651c0,0-5.173,21.356-5.175,21.365c-0.266,1.109,0.531,1.826,1.426,1.826 c0.012,0,0.023,0.004,0.036,0.004h3.982c0.079,0.629,0.215,1.237,0.387,1.831c0.059-0.106,0.102-0.224,0.102-0.354 c0-1.104,0.896-2,2-2c0.166,0,0.324,0.024,0.478,0.062c-0.043-0.343-0.074-0.688-0.074-1.042c0-0.512,0.053-1.011,0.135-1.5 c0.715-4.271,4.421-7.531,8.896-7.531s8.18,3.26,8.896,7.531c0.082,0.489,0.135,0.988,0.135,1.5s-0.053,1.012-0.135,1.5 c-0.715,4.272-4.421,7.531-8.896,7.531c-2.022,0-3.883-0.67-5.386-1.794c-0.35,0.302-0.8,0.491-1.299,0.491 c-0.413,0-0.749,0.336-0.749,0.748c0,0.289-0.065,0.563-0.176,0.812c2.075,1.708,4.722,2.743,7.614,2.743 c6.125,0,11.185-4.604,11.927-10.529h1.814c0.742,5.926,5.802,10.529,11.927,10.529s11.186-4.604,11.927-10.529H59 c0.012,0,0.023-0.005,0.036-0.005C59.931,29.842,60.728,29.125,60.462,28.016z" />
    </g>
    <g>
      <g>
        <path fill="currentColor"
          d="M50.686,16.125c-2.485,0-4.499-2.014-4.499-4.499c0,2.485-2.014,4.499-4.499,4.499 c2.485,0,4.499,2.014,4.499,4.499C46.187,18.139,48.2,16.125,50.686,16.125z" />
      </g>
    </g>
    <g>
      <g>
        <path fill="currentColor"
          d="M37.904,19.626c-1.519,0-2.749-1.23-2.749-2.749c0,1.519-1.23,2.749-2.749,2.749 c1.519,0,2.749,1.229,2.749,2.749C35.155,20.855,36.386,19.626,37.904,19.626z" />
      </g>
    </g>
    <g>
      <g>
        <path fill="currentColor"
          d="M10.734,34.072c-1.519,0-2.749-1.23-2.749-2.75c0,1.52-1.23,2.75-2.749,2.75 c1.519,0,2.749,1.229,2.749,2.748C7.985,35.303,9.215,34.072,10.734,34.072z" />
      </g>
    </g>
  </symbol>
  <symbol id="icon-facebook" xmlns="http://www.w3.org/2000/svg" width="9" height="19" viewBox="0 0 8.673 18.944">
    <path fill="currentColor"
      d="M6.275,3.357c0.799,0,1.599,0,2.398,0c0-1.119,0-2.238,0-3.357c-0.959,0-1.92,0-2.878,0C2.656,0.181,1.54,2.387,1.948,6.115 H0v3.517h1.958c0,3.104,0,6.208,0,9.312c1.279,0,2.558,0,3.837,0c0-3.104,0-6.208,0-9.312h2.857V6.115H5.786 C5.765,5.07,5.75,3.709,6.275,3.357z" />
  </symbol>
  <symbol id="icon-twitter" xmlns="http://www.w3.org/2000/svg" width="18" height="15" viewBox="0 0 17.5 14.663">
    <g id="W6EeEF_1_">
      <g>
        <path fill="currentColor" clip-rule="evenodd"
          d="M11.283,0.153c1.736-0.485,3.074,0.263,3.685,1.151 c0.694-0.226,1.372-0.47,2.072-0.691c-0.004,0.841-0.538,1.478-0.883,1.727C16.861,2.506,17.5,1.86,17.5,1.86 c-0.175,0.976-1.035,1.746-1.611,1.977C15.65,10.429,12.617,14.793,5.507,14.66c-0.538,0,0.077,0-0.46,0 c-0.422,0-4.29-0.45-5.047-1.843c2.341,0.192,4.011-0.412,4.835-1.15c-0.989-0.293-2.761-0.464-3.07-2.881 c0.362,0.105,0.583,0.223,1.228,0.117C1.757,8.067,0.385,7.366,0.461,5.218c0.294,0.32,1.1,0.523,1.381,0.461 c-0.725-0.235-2.03-3.281-0.921-4.836C2.794,2.654,4.769,4.364,8.29,4.528C8.506,2.288,9.461,0.787,11.283,0.153z" />
      </g>
    </g>
  </symbol>
  <symbol id="icon-youtube" xmlns="http://www.w3.org/2000/svg" width="15" height="14" viewBox="0 0 14.64 13.96">
    <path fill="currentColor"
      d="M1.775,13.78C0.799,14.257,0,13.758,0,12.671V1.29c0-1.088,0.799-1.585,1.775-1.109l12.133,5.932 c0.975,0.478,0.975,1.258,0,1.736L1.775,13.78z" />
  </symbol>
  <symbol id="icon-menu-burger" xmlns="http://www.w3.org/2000/svg" width="49.945px" height="24.007px"
    viewBox="0 0 49.945 24.007" enable-background="new 0 0 49.945 24.007" xml:space="preserve">
    <g id="miu">
      <g id="editor_list_view_hambuger_menu_glyph">
        <g>
          <path id="path-1" fill="#FFFFFF"
            d="M1.137,0C0.51,0,0,0.428,0,1.01v1.981c0,0.558,0.494,1.01,1.139,1.01h47.671 c0.628,0,1.138-0.428,1.138-1.01V1.01c0-0.558-0.494-1.01-1.138-1.01H1.137z M1.137,10.003C0.51,10.003,0,10.431,0,11.013v1.98 c0,0.557,0.494,1.01,1.139,1.01h47.671c0.628,0,1.138-0.428,1.138-1.01v-1.98c0-0.558-0.494-1.01-1.138-1.01H1.137z M1.137,20.005C0.51,20.005,0,20.434,0,21.016v1.981c0,0.557,0.494,1.01,1.139,1.01h47.671c0.628,0,1.138-0.428,1.138-1.01 v-1.981c0-0.558-0.494-1.011-1.138-1.011H1.137z" />
        </g>
        <g>
          <path id="path-1_1_" fill="#FFFFFF"
            d="M1.137,0C0.51,0,0,0.428,0,1.01v1.981c0,0.558,0.494,1.01,1.139,1.01h47.671 c0.628,0,1.138-0.428,1.138-1.01V1.01c0-0.558-0.494-1.01-1.138-1.01H1.137z M1.137,10.003C0.51,10.003,0,10.431,0,11.013v1.98 c0,0.557,0.494,1.01,1.139,1.01h47.671c0.628,0,1.138-0.428,1.138-1.01v-1.98c0-0.558-0.494-1.01-1.138-1.01H1.137z M1.137,20.005C0.51,20.005,0,20.434,0,21.016v1.981c0,0.557,0.494,1.01,1.139,1.01h47.671c0.628,0,1.138-0.428,1.138-1.01 v-1.981c0-0.558-0.494-1.011-1.138-1.011H1.137z" />
        </g>
      </g>
    </g>
  </symbol>
  <symbol id="logo-htmlacademy" xmlns="http://www.w3.org/2000/svg" xmlns:xlink="http://www.w3.org/1999/xlink" x="0px"
    y="0px" width="26.943px" height="34.09px" viewBox="0 0 26.943 34.09" enable-background="new 0 0 26.943 34.09"
    xml:space="preserve">
    <path fill="currentColor"
      d="M13.62,0.017L13.472,0L0,1.412v24.661l13.472,8.017l13.43-7.99l0.042-0.026V1.412L13.62,0.017z M25.019,12.127L13.495,5.334 l-0.001-0.104L13.407,5.28l-0.088-0.056v0.109L1.925,12.118V3.147l11.547-1.212l11.547,1.212V12.127z M13.405,6.787L24.923,13.5 l-4.479,2.64l-7.093-4.221l-0.013,1.415l5.904,3.513l-0.86,0.507l-5.031-2.992l-0.013,1.415l3.827,2.275l-0.782,0.523l-3.032-1.787 l-0.013,1.413l1.852,1.091l-1.8,1.081L2.034,13.622L13.405,6.787z M1.925,15.127l11.411,6.791l0.015,1.044l-7.941-4.728L5.395,19.65 l7.979,4.796l0.017,1.076l-7.972-4.741l-0.013,1.415l8.021,4.821l0.045,0.026l8.143-4.872v-1.268l-0.011-0.148v-3.761l3.415-2.036 v10.02L13.472,31.85L1.925,24.979V15.127z" />
  </symbol>
  <symbol id="icon-contrast" xmlns="http://www.w3.org/2000/svg" xmlns:xlink="http://www.w3.org/1999/xlink"
    width="31.92px" height="31.92px" viewBox="-35.422 -7.96 31.92 31.92">
    <path fill="currentColor"
      d="M-19.462-3.96c6.595,0,11.96,5.365,11.96,11.96s-5.365,11.96-11.96,11.96S-31.422,14.595-31.422,8 S-26.057-3.96-19.462-3.96 M-19.462-7.96c-8.814,0-15.96,7.145-15.96,15.96c0,8.813,7.146,15.96,15.96,15.96S-3.502,16.813-3.502,8 C-3.502-0.815-10.648-7.96-19.462-7.96L-19.462-7.96z" />
    <path fill="currentColor" d="M-19.462,16.331c4.706,0,8.52-3.813,8.52-8.52c0-4.705-3.813-8.519-8.52-8.519" />
  </symbol>
  <symbol id="icon-arrow-right" xmlns="http://www.w3.org/2000/svg" width="21.706px" height="41.719px"
    viewBox="0 0 21.706 41.719">
    <path fill="currentColor"
      d="M19.661,20.859L0.248,1.446c-0.331-0.331-0.331-0.867,0-1.198c0.33-0.331,0.867-0.331,1.197,0l20.013,20.012 c0.33,0.33,0.33,0.867,0,1.197L1.445,41.471c-0.164,0.165-0.382,0.248-0.599,0.248s-0.434-0.083-0.599-0.248 c-0.331-0.331-0.331-0.867,0-1.198L19.661,20.859z" />
  </symbol>
  <symbol id="icon-arrow-left" xmlns="http://www.w3.org/2000/svg" width="21.706px" height="41.719px"
    viewBox="0 0 21.706 41.719">
    <path fill="currentColor"
      d="M2.045,20.859L21.458,1.446c0.331-0.331,0.331-0.867,0-1.198c-0.33-0.331-0.867-0.331-1.197,0L0.248,20.261 c-0.331,0.33-0.331,0.867,0,1.197l20.013,20.013c0.164,0.165,0.382,0.248,0.599,0.248s0.434-0.083,0.599-0.248 c0.331-0.331,0.331-0.867,0-1.198L2.045,20.859z" />
  </symbol>
</svg>
